<?xml version="1.0"?>
<svg xmlns="http://www.w3.org/2000/svg" xmlns:xlink="http://www.w3.org/1999/xlink" xmlns:svgjs="http://svgjs.com/svgjs" version="1.1" width="512" height="512" x="0" y="0" viewBox="0 0 512 512" style="enable-background:new 0 0 512 512" xml:space="preserve"><g><path xmlns="http://www.w3.org/2000/svg" d="m133.243 339.738a6 6 0 0 0 6 6h233.514a6 6 0 0 0 0-12h-233.514a6 6 0 0 0 -6 6z" fill="#ffffff" data-original="#000000" style=""/><path xmlns="http://www.w3.org/2000/svg" d="m372.757 385.63h-233.514a6 6 0 0 0 0 12h233.514a6 6 0 0 0 0-12z" fill="#ffffff" data-original="#000000" style=""/><path xmlns="http://www.w3.org/2000/svg" d="m372.757 437.522h-233.514a6 6 0 0 0 0 12h233.514a6 6 0 0 0 0-12z" fill="#ffffff" data-original="#000000" style=""/><path xmlns="http://www.w3.org/2000/svg" d="m187.258 52.192h-36.324a6 6 0 0 0 -6 6v54.487a6 6 0 0 0 6 6h36.324a6 6 0 0 0 6-6v-54.487a6 6 0 0 0 -6-6zm-6 54.487h-24.324v-42.487h24.324z" fill="#ffffff" data-original="#000000" style=""/><path xmlns="http://www.w3.org/2000/svg" d="m321.464 52.192h-82.314a6 6 0 0 0 0 12h82.314a6 6 0 1 0 0-12z" fill="#ffffff" data-original="#000000" style=""/><path xmlns="http://www.w3.org/2000/svg" d="m55.459 502h401.082a26.03 26.03 0 0 0 26-26v-396.321a15.975 15.975 0 0 0 -5.633-12.187l-63.1-53.679a16.018 16.018 0 0 0 -10.363-3.813h-347.986a26.03 26.03 0 0 0 -26 26v440a26.03 26.03 0 0 0 26 26zm-14-466a14.016 14.016 0 0 1 14-14h45.01v130.9a6 6 0 0 0 6 6h259.46a6 6 0 0 0 6-6v-28.921a6 6 0 1 0 -12 0v22.921h-247.46v-124.9h247.46v61.979a6 6 0 0 0 12 0v-61.979h31.516a4.006 4.006 0 0 1 2.593.953l63.094 53.679a3.994 3.994 0 0 1 1.409 3.047v396.321a14.016 14.016 0 0 1 -14 14h-45.352v-202.74a6 6 0 0 0 -6-6h-220.189a6 6 0 0 0 0 12h214.189v196.74h-286.378v-196.74h32.189a6 6 0 0 0 0-12h-38.189a6 6 0 0 0 -6 6v202.74h-45.352a14.016 14.016 0 0 1 -14-14z" fill="#ffffff" data-original="#000000" style=""/></g></svg>
