<?xml version="1.0"?>
<svg xmlns="http://www.w3.org/2000/svg" id="Layer_37" enable-background="new 0 0 64 64" height="512px" viewBox="0 0 64 64" width="512px"><g><g><g><path d="m37.555 17h-13.555c-2.206 0-4 1.794-4 4 0 1.103.897 2 2 2h13.616z" fill="#f0bc5e" data-original="#F0BC5E" class="active-path" style="fill:#C46767" data-old_color="#f0bc5e"/></g><g><path d="m13.737 55.737 6.087-11.161c-2.305-1.293-3.695-3.427-3.806-6.219l-.151-.202-6.957 12.755z" fill="#f0bc5e" data-original="#F0BC5E" class="active-path" style="fill:#C46767" data-old_color="#f0bc5e"/></g><g><path d="m53.52 27h-21.52c-2.206 0-4 1.794-4 4 0 1.103.897 2 2 2h21.755z" fill="#f0bc5e" data-original="#F0BC5E" class="active-path" style="fill:#C46767" data-old_color="#f0bc5e"/></g><g><path d="m6.414 47h-1.585c-2.112 0-3.829 1.717-3.829 3.829 0 1.022.398 1.984 1.122 2.707l9.464 9.464h1.585c2.112 0 3.829-1.717 3.829-3.829 0-1.022-.398-1.984-1.122-2.707zm6.757 14h-.757l-8.878-8.878c-.346-.346-.536-.805-.536-1.293 0-1.009.82-1.829 1.829-1.829h.757l8.878 8.878c.346.346.536.805.536 1.293 0 1.009-.82 1.829-1.829 1.829z" data-original="#000000" class="" style="fill:#FFFFFF" data-old_color="#000000"/><path d="m61.605 15.956c-.453-.379-.981-.639-1.536-.794.571-.546.931-1.311.931-2.162v-5.252c0-.881-.59-1.67-1.378-1.9l-13.447-4.848h-1.175c-1.654 0-3 1.346-3 3v5c-1.761 0-3.338 1.18-3.83 2.846l-4.898 15.154h2.102l4.706-14.563c.251-.846 1.04-1.437 1.92-1.437h.808l13.255 5.303c-.407.441-.724.97-.901 1.569l-4.966 16.886c-.106.359-.156.686-.176 1.002-.425.286-.799.644-1.107 1.053l-6.991-3.813h-4.177l10.342 5.641c-.054.279-.087.565-.087.859v.5c0 .551-.449 1-1 1h-14.926c.342-2.619 1.865-6.264 3.383-8h-2.493c-1.446 2.256-2.635 5.475-2.902 8h-2c.278-3.163 1.8-6.258 3.384-8h-1.446c-.334 0-.645-.09-.922-.236-1.476 2.067-2.781 5.059-3.017 8.236h-.061c-3.86 0-7-3.14-7-7 0-1.654 1.346-3 3-3h6c0-.732.212-1.409.556-2h-4.479c.234-1.861 1.058-4.469 2.378-6h-2.456c-1.12 1.897-1.751 4.268-1.937 6h-.062c-.651 0-1.254.054-1.819.151.339-2.073 1.146-4.768 2.283-6.151h-.464c-.604 0-1.139-.274-1.506-.698-1.437 2.159-2.191 5.484-2.416 7.536-.534.279-1.008.621-1.409 1.039-1.873 1.95-1.757 4.783-1.688 6.475.01.246.019.465.019.648 0 5.467 4.318 9 11 9h7v4c-1.654 0-3 1.346-3 3v3h-2c-2.206 0-4 1.794-4 4v2h26v-2c0-2.206-1.794-4-4-4h-2v-3c0-1.654-1.346-3-3-3v-4h8.5c4.136 0 7.5-3.364 7.5-7.5 0-.33-.04-.649-.108-.959.363-.329.742-.72.946-1.412l4.963-16.876c.473-1.607.004-3.294-1.196-4.297zm-4.605-6.956c0-.551.449-1 1-1h1v5c0 .551-.449 1-1 1s-1-.449-1-1zm-12-6h.825l10.255 3.696c-.659.551-1.08 1.379-1.08 2.304v4c0 .267.046.521.112.768l-11.112-4.445v-5.323c0-.551.449-1 1-1zm3 58h-22c0-1.103.897-2 2-2h18c1.103 0 2 .897 2 2zm-6-7v3h-10v-3c0-.551.449-1 1-1h8c.551 0 1 .449 1 1zm-3-3h-4v-4h4zm10.5-6h-23.5c-5.551 0-9-2.682-9-7 0-.207-.01-.453-.021-.73-.029-.714-.065-1.608.055-2.49.396 4.599 4.266 8.22 8.966 8.22h21c1.654 0 3-1.346 3-3v-.5c0-1.378 1.122-2.5 2.5-2.5s2.5 1.122 2.5 2.5c0 3.033-2.467 5.5-5.5 5.5zm11.382-25.312-4.963 16.876c-.003.012-.009.02-.012.031-.826-.968-2.038-1.595-3.407-1.595-.1 0-.197.011-.296.018l4.876-16.581c.251-.846 1.04-1.437 1.921-1.437.48 0 .938.169 1.321.49.58.485.805 1.367.56 2.198z" data-original="#000000" class="" style="fill:#FFFFFF" data-old_color="#000000"/></g></g></g> </svg>
