<?xml version="1.0"?>
<svg xmlns="http://www.w3.org/2000/svg" xmlns:xlink="http://www.w3.org/1999/xlink" version="1.1" id="Capa_1" x="0px" y="0px" viewBox="0 0 512 512" style="enable-background:new 0 0 512 512;" xml:space="preserve" width="512px" height="512px" class="hovered-paths"><g><g>
	<path style="fill:#D62E2E" d="M251.661,442.577H8.678c-4.793,0-8.678-3.885-8.678-8.678c0-4.793,3.885-8.678,8.678-8.678h242.983   c9.585,0,17.356-7.771,17.356-17.356c0-9.585-7.771-17.356-17.356-17.356H60.746C27.213,390.47,0.039,363.296,0,329.763   c0.028-23.952,19.438-43.362,43.39-43.39c4.793,0,8.678,3.885,8.678,8.678c0,4.793-3.885,8.678-8.678,8.678   c-14.372,0.016-26.018,11.662-26.034,26.034c0.028,23.952,19.438,43.362,43.39,43.39h190.915c19.171,0,34.712,15.541,34.712,34.712   C286.373,427.036,270.832,442.577,251.661,442.577z" data-original="#35495E" class="" data-old_color="#35495E"/>
	<g>
		<polygon style="fill:#D1D4D1;" points="503.322,135.42 329.763,222.2 307.348,177.178 480.907,90.399   " data-original="#D1D4D1"/>
		<rect x="329.763" y="260.339" style="fill:#D1D4D1;" width="182.237" height="52.068" data-original="#D1D4D1"/>
	</g>
	<path style="fill:#BCB5B5" d="M104.136,295.051H512v17.356c0.003,9.207-3.654,18.038-10.164,24.548   c-6.51,6.51-15.341,10.167-24.548,10.164H95.458L104.136,295.051z" data-original="#804169" class="hovered-path active-path" data-old_color="#804169"/>
	<path style="fill:#FFFFFF" d="M144.575,277.869c1.954,5.518,2.952,11.329,2.951,17.182c0,28.756-23.312,52.068-52.068,52.068   S43.39,323.807,43.39,295.051s23.312-52.068,52.068-52.068h0.347L433.702,73.035c17.182-8.506,38.007-1.474,46.514,15.707   l7.723,15.534L144.575,277.869z" data-original="#CC66A1" class="" data-old_color="#CC66A1"/>
	<circle style="fill:#BCB5B5" cx="95.458" cy="295.051" r="17.356" data-original="#804169" class="hovered-path active-path" data-old_color="#804169"/>
</g></g> </svg>
