<?xml version="1.0"?>
<svg xmlns="http://www.w3.org/2000/svg" xmlns:xlink="http://www.w3.org/1999/xlink" xmlns:svgjs="http://svgjs.com/svgjs" version="1.1" width="512" height="512" x="0" y="0" viewBox="0 0 512.001 512.001" style="enable-background:new 0 0 512 512" xml:space="preserve" class=""><g>
<g xmlns="http://www.w3.org/2000/svg">
	<g>
		<path d="M510.995,48.749c-2.071-3.588-6.659-4.816-10.245-2.745l-2.663,1.537c-2.567-3.253-5.508-6.194-8.761-8.761l1.537-2.663    c2.071-3.587,0.842-8.174-2.745-10.245c-3.588-2.073-8.175-0.843-10.245,2.745l-1.526,2.643    c-3.797-1.523-7.807-2.618-11.979-3.218v-3.043c0-4.142-3.358-7.5-7.5-7.5c-4.142,0-7.5,3.358-7.5,7.5v3.044    c-4.171,0.599-8.182,1.695-11.979,3.218l-1.526-2.643c-2.071-3.587-6.658-4.817-10.245-2.745    c-3.587,2.071-4.816,6.658-2.745,10.245l1.537,2.663c-3.253,2.567-6.194,5.508-8.761,8.761l-2.663-1.537    c-3.587-2.072-8.174-0.843-10.245,2.745c-2.071,3.587-0.842,8.174,2.745,10.245l2.643,1.526    c-1.523,3.797-2.618,7.807-3.218,11.979h-68.044c-4.142,0-7.5,3.358-7.5,7.5v90c0,4.142,3.358,7.5,7.5,7.5h7.5v22.499    c0,20.678,16.822,37.5,37.5,37.5h22.5v37.5c0,14.269,5.73,27.22,15,36.692v159.902l-24.872,8.291    c-3.93,1.31-6.053,5.557-4.744,9.487c1.048,3.143,3.974,5.13,7.114,5.13c0.786,0,1.586-0.125,2.373-0.387l30-10    c3.063-1.021,5.128-3.887,5.128-7.115V322.423c6.824,3.251,14.452,5.076,22.5,5.076c8.048,0,15.676-1.825,22.5-5.076v149.17    l-24.872,8.291c-3.93,1.31-6.053,5.557-4.744,9.487c1.048,3.143,3.974,5.13,7.114,5.13c0.786,0,1.586-0.125,2.373-0.387l30-10    c3.063-1.021,5.128-3.887,5.128-7.115V311.691c9.27-9.472,15-22.423,15-36.692v-100c0-15.164-12.336-27.5-27.5-27.5h-17.5v-15.544    c25.407-3.651,45-25.554,45-51.956c0-6.881-1.344-13.451-3.762-19.479l2.643-1.526C511.837,56.923,513.066,52.336,510.995,48.749z     M374.369,87.499h45v15h-45V87.499z M396.869,117.499c12.407,0,22.5,10.093,22.5,22.5s-10.093,22.5-22.5,22.5    c-12.407,0-22.5-10.094-22.5-22.5C374.369,127.592,384.462,117.499,396.869,117.499z M344.369,87.499h15v15h-15V87.499z     M344.369,162.499v-45h22.52c-4.719,6.272-7.52,14.064-7.52,22.5c0,8.436,2.801,16.228,7.52,22.5H344.369z M456.869,312.499    c-18.11,0-33.262-12.904-36.746-30h73.491C490.13,299.595,474.979,312.499,456.869,312.499z M471.994,237.499    c-4.136,0-7.5-3.364-7.5-7.516l-0.125-60v-7.484h17.5c6.893,0,12.5,5.607,12.5,12.5v92.5h-75v-67.5c0-4.142-3.358-7.5-7.5-7.5    c-4.142,0-7.5,3.358-7.5,7.5v22.5h-22.5c-12.407,0-22.5-10.093-22.5-22.5v-22.5h90.016l0.109,52.5c0,12.407,10.093,22.5,22.5,22.5    c4.142,0,7.5-3.358,7.5-7.5C479.494,240.857,476.136,237.499,471.994,237.499z M426.848,117.499h22.52v45h-22.52    c4.719-6.272,7.52-14.064,7.52-22.5C434.368,131.563,431.567,123.771,426.848,117.499z M434.369,102.499v-15h15v15H434.369z     M464.369,116.744V79.999c0-4.142-3.358-7.5-7.5-7.5h-36.745c3.484-17.096,18.635-30,36.745-30c20.678,0,37.5,16.822,37.5,37.5    C494.369,98.109,481.465,113.26,464.369,116.744z" fill="#ffffff" data-original="#000000" style=""/>
	</g>
</g>
<g xmlns="http://www.w3.org/2000/svg">
	<g>
		<path d="M112.5,27.499c-11.557,0-22.248,3.762-30.93,10.115c-0.196,0.121-0.39,0.249-0.577,0.39    c-0.21,0.158-0.409,0.325-0.598,0.499C71.16,45.665,64.372,55.829,61.51,67.524C44.047,68.05,30,82.41,30,99.999    c0,17.92,14.58,32.5,32.5,32.5c8.103,0,15.803-3.02,21.703-8.314c8.173,5.252,17.881,8.314,28.297,8.314    c28.949,0,52.5-23.551,52.5-52.5S141.449,27.499,112.5,27.499z M112.5,42.498c17.96,0.001,33.005,12.695,36.651,29.58    c-20.154-2-38.58-11.212-52.297-26.147C101.62,43.733,106.917,42.498,112.5,42.498z M62.5,117.499c-9.649,0-17.5-7.851-17.5-17.5    c0-8.823,6.569-16.121,15.068-17.311c0.609,12.006,5.28,22.95,12.649,31.51C69.778,116.313,66.219,117.499,62.5,117.499z     M112.5,117.499c-20.678,0-37.5-16.823-37.5-37.5c0-9.663,3.675-18.483,9.699-25.139c16.692,18.803,39.576,30.244,64.607,32.299    C145.954,104.423,130.729,117.499,112.5,117.499z" fill="#ffffff" data-original="#000000" style=""/>
	</g>
</g>
<g xmlns="http://www.w3.org/2000/svg">
	<g>
		<path d="M284.118,168.096c-2.245-8.651-8.608-15.657-16.861-18.801c10.869-9.626,17.739-23.67,17.739-39.296v-30    c0-28.949-23.551-52.5-52.5-52.5c-28.949,0-52.5,23.551-52.5,52.5v30c0,15.626,6.87,29.67,17.739,39.296    c-8.061,3.072-14.313,9.829-16.691,18.204h-17.092c-3.274-11.528-13.889-20-26.452-20h-50c-12.419,0-22.937,8.278-26.339,19.604    C35.193,163.961,15,141.801,15,114.999v-80c0-4.142-3.358-7.5-7.5-7.5S0,30.857,0,34.999v80c0,34.684,26.298,63.329,60,67.073    v60.185c-9.693,11.989-15,26.935-15,42.406v57.836c0,4.142,3.358,7.5,7.5,7.5H75v117.023c0,0.028,0,19.977,0,19.977    c0,4.142,3.358,7.5,7.5,7.5c4.142,0,7.5-3.358,7.5-7.5v-5.986l18.34,12.227c1.279,0.853,2.724,1.261,4.153,1.261    c2.423,0,4.802-1.173,6.247-3.341c2.298-3.446,1.367-8.103-2.08-10.4L90,462.985V349.999h45v117.023c0,0.028,0,19.977,0,19.977    c0,4.142,3.358,7.5,7.5,7.5c4.142,0,7.5-3.358,7.5-7.5v-5.986l18.34,12.227c1.279,0.853,2.724,1.261,4.153,1.261    c2.423,0,4.802-1.173,6.247-3.341c2.298-3.446,1.367-8.103-2.08-10.4L150,462.985V349.999h7.5c4.142,0,7.5-3.358,7.5-7.5v-160    h14.996v92.5c0,14.269,5.73,27.22,15,36.692v165.308c0,3.228,2.066,6.094,5.128,7.115l30,10c0.787,0.262,1.586,0.387,2.373,0.387    c3.14,0,6.066-1.988,7.114-5.13c1.31-3.93-0.814-8.177-4.744-9.487l-24.872-8.291v-149.17c6.824,3.251,14.452,5.076,22.5,5.076    c8.048,0,15.676-1.825,22.5-5.076v154.576c0,3.228,2.066,6.094,5.128,7.115l30,10c0.787,0.262,1.586,0.387,2.373,0.387    c3.14,0,6.066-1.988,7.114-5.13c1.31-3.93-0.814-8.177-4.744-9.487l-24.872-8.291V311.691    c7.766-7.936,13.034-18.315,14.541-29.865c17.322-3.306,30.459-18.557,30.459-36.828v-40    C314.996,186.581,301.646,171.234,284.118,168.096z M105,162.499h15v22.5c0,4.136-3.364,7.5-7.5,7.5s-7.5-3.364-7.5-7.5V162.499z     M150,334.999H60v-50.335c0-11.687,3.905-22.982,11.039-32.165H150V334.999z M150,237.499H75v-62.5c0-6.893,5.607-12.5,12.5-12.5    H90v22.5c0,12.407,10.093,22.5,22.5,22.5s22.5-10.094,22.5-22.5v-22.5h2.5c6.893,0,12.5,5.607,12.5,12.5V237.499z M194.996,79.999    c0-20.678,16.822-37.5,37.5-37.5c20.678,0,37.5,16.822,37.5,37.5v2.5h-15.139c-5.653-6.325-13.747-10-22.361-10    c-8.614,0-16.708,3.675-22.361,10h-15.139V79.999z M194.996,109.999v-12.5h18.792c2.502,0,4.84-1.248,6.232-3.328    c2.797-4.178,7.461-6.672,12.476-6.672c5.015,0,9.68,2.494,12.477,6.672c1.393,2.08,3.73,3.328,6.232,3.328h18.791v12.5    c0,20.678-16.822,37.5-37.5,37.5S194.996,130.676,194.996,109.999z M232.496,312.499c-18.11,0-33.262-12.904-36.746-30h73.491    C265.757,299.595,250.606,312.499,232.496,312.499z M269.996,267.499h-75v-92.5c0-6.893,5.607-12.5,12.5-12.5h17.5v81.844    c0,4.142,3.358,7.5,7.5,7.5c4.142,0,7.5-3.358,7.5-7.5v-81.844h17.5c6.893,0,12.5,5.607,12.5,12.5V267.499z M299.996,244.999    c0,9.778-6.271,18.114-15,21.21v-82.42c8.729,3.096,15,11.432,15,21.21V244.999z" fill="#ffffff" data-original="#000000" style=""/>
	</g>
</g>
<g xmlns="http://www.w3.org/2000/svg">
</g>
<g xmlns="http://www.w3.org/2000/svg">
</g>
<g xmlns="http://www.w3.org/2000/svg">
</g>
<g xmlns="http://www.w3.org/2000/svg">
</g>
<g xmlns="http://www.w3.org/2000/svg">
</g>
<g xmlns="http://www.w3.org/2000/svg">
</g>
<g xmlns="http://www.w3.org/2000/svg">
</g>
<g xmlns="http://www.w3.org/2000/svg">
</g>
<g xmlns="http://www.w3.org/2000/svg">
</g>
<g xmlns="http://www.w3.org/2000/svg">
</g>
<g xmlns="http://www.w3.org/2000/svg">
</g>
<g xmlns="http://www.w3.org/2000/svg">
</g>
<g xmlns="http://www.w3.org/2000/svg">
</g>
<g xmlns="http://www.w3.org/2000/svg">
</g>
<g xmlns="http://www.w3.org/2000/svg">
</g>
</g></svg>
