<?xml version="1.0"?>
<svg xmlns="http://www.w3.org/2000/svg" height="512px" viewBox="0 0 64 64" width="512px"><g><g id="Mechanism"><path d="m55.49 47.47a1.012 1.012 0 0 1 .79-.7l3.72-.62v-4.3l-3.72-.62a1.012 1.012 0 0 1 -.79-.7 12.564 12.564 0 0 0 -.91-2.2 1 1 0 0 1 .06-1.05l2.2-3.07-3.05-3.05-3.07 2.2a1 1 0 0 1 -1.05.06 12.564 12.564 0 0 0 -2.2-.91 1.012 1.012 0 0 1 -.7-.79l-.62-3.72h-4.3l-.62 3.72a1.012 1.012 0 0 1 -.7.79 12.564 12.564 0 0 0 -2.2.91 1 1 0 0 1 -1.05-.06l-3.07-2.2-3.05 3.05 2.2 3.07a1 1 0 0 1 .06 1.05 14.763 14.763 0 0 0 -.92 2.23 1.025 1.025 0 0 1 -.78.67l-3.72.62v4.3l3.72.62a1.012 1.012 0 0 1 .79.7 12.564 12.564 0 0 0 .91 2.2 1 1 0 0 1 -.06 1.05l-2.2 3.07 3.05 3.05 3.07-2.2a1 1 0 0 1 1.05-.06 12.564 12.564 0 0 0 2.2.91 1.012 1.012 0 0 1 .7.79l.62 3.72h4.3l.62-3.72a1.012 1.012 0 0 1 .7-.79 12.564 12.564 0 0 0 2.2-.91 1 1 0 0 1 1.05.06l3.07 2.2 3.05-3.05-2.2-3.07a1 1 0 0 1 -.06-1.05 12.564 12.564 0 0 0 .91-2.2zm-11.49 5.53a9 9 0 1 1 9-9 9.011 9.011 0 0 1 -9 9z" data-original="#000000" class="active-path" data-old_color="#000000" fill="#FFFFFF"/><circle cx="44" cy="44" r="7" data-original="#000000" class="active-path" data-old_color="#000000" fill="#FFFFFF"/><path d="m33.39 29.15a1 1 0 0 1 1.29-.11l.68.49a9.988 9.988 0 1 0 -5.83 5.83l-.49-.68a1.015 1.015 0 0 1 .11-1.29z" data-original="#000000" class="active-path" data-old_color="#000000" fill="#FFFFFF"/><path d="m11.21 32.08c.01.02.02.03.02.05a2.51 2.51 0 0 1 -.14 2.28l-2.92 4.87 4.55 4.55 4.86-2.92a2.533 2.533 0 0 1 1.27-.35 2.587 2.587 0 0 1 1.02.21c.02 0 .03.01.05.02a2.506 2.506 0 0 1 1.49 1.71l1.37 5.5h4.14l-.08-.01a1 1 0 0 1 -.84-.99v-6a1 1 0 0 1 .84-.99l3.97-.66a13.275 13.275 0 0 1 .57-1.4l-.67-.93a12.05 12.05 0 1 1 6.31-6.31l.93.67a13.338 13.338 0 0 1 1.4-.59l.66-3.95a1 1 0 0 1 .99-.84h6a1 1 0 0 1 .99.84l.01.08v-4.14l-5.5-1.37a2.506 2.506 0 0 1 -1.71-1.49c-.01-.02-.02-.03-.02-.05a2.51 2.51 0 0 1 .14-2.28l2.92-4.88-4.54-4.54-4.87 2.92a2.533 2.533 0 0 1 -1.27.35 2.587 2.587 0 0 1 -1.02-.21c-.02 0-.03-.01-.05-.02a2.506 2.506 0 0 1 -1.49-1.71l-1.37-5.5h-6.44l-1.37 5.5a2.506 2.506 0 0 1 -1.49 1.71c-.02.01-.03.02-.05.02a2.51 2.51 0 0 1 -2.28-.14l-4.88-2.92-4.54 4.54 2.92 4.87a2.533 2.533 0 0 1 .35 1.27 2.587 2.587 0 0 1 -.21 1.02c0 .02-.01.03-.02.05a2.506 2.506 0 0 1 -1.71 1.49l-5.5 1.37v6.44l5.5 1.37a2.506 2.506 0 0 1 1.71 1.49z" data-original="#000000" class="active-path" data-old_color="#000000" fill="#FFFFFF"/><path d="m45 7h2v2h-2z" data-original="#000000" class="active-path" data-old_color="#000000" fill="#FFFFFF"/><path d="m56 28h2v-20a1 1 0 0 0 -1-1h-8v2h7z" data-original="#000000" class="active-path" data-old_color="#000000" fill="#FFFFFF"/><path d="m26 58h2v2h-2z" data-original="#000000" class="active-path" data-old_color="#000000" fill="#FFFFFF"/><path d="m9 45h-2v14a1 1 0 0 0 1 1h16v-2h-15z" data-original="#000000" class="active-path" data-old_color="#000000" fill="#FFFFFF"/></g></g> </svg>
