<?xml version="1.0" standalone="no"?>
<!DOCTYPE svg PUBLIC "-//W3C//DTD SVG 20010904//EN"
 "http://www.w3.org/TR/2001/REC-SVG-20010904/DTD/svg10.dtd">
<svg version="1.0" xmlns="http://www.w3.org/2000/svg"
 width="512.000000pt" height="512.000000pt" viewBox="0 0 512.000000 512.000000"
 preserveAspectRatio="xMidYMid meet">
<metadata>
Created by potrace 1.11, written by Peter Selinger 2001-2013
</metadata>
<g transform="translate(0.000000,512.000000) scale(0.100000,-0.100000)"
fill="#000000" stroke="none">
<path d="M1609 4041 c-26 -26 -29 -36 -29 -90 l0 -61 -149 0 c-144 0 -151 -1
-178 -24 l-28 -24 -3 -241 -3 -241 980 0 981 0 0 240 0 241 -25 24 c-23 24
-28 25 -173 25 l-150 0 -4 66 c-4 58 -8 70 -32 90 -38 33 -80 31 -117 -5 -26
-26 -29 -36 -29 -90 l0 -61 -90 0 -90 0 0 61 c0 54 -3 64 -29 90 -37 36 -79
38 -117 5 -24 -20 -28 -32 -32 -90 l-4 -66 -84 0 -84 0 0 48 c0 89 -49 144
-114 128 -50 -12 -66 -39 -66 -111 l0 -65 -90 0 -90 0 0 61 c0 54 -3 64 -29
90 -20 20 -39 29 -61 29 -22 0 -41 -9 -61 -29z m151 -295 c0 -141 -1 -145 -26
-175 -20 -25 -34 -31 -64 -31 -30 0 -44 6 -64 31 -25 30 -26 34 -26 175 l0
144 90 0 90 0 0 -144z m350 -6 c0 -147 -1 -152 -25 -175 -16 -17 -35 -25 -60
-25 -25 0 -44 8 -60 25 -24 23 -25 28 -25 175 l0 150 85 0 85 0 0 -150z m360
9 c0 -141 -6 -171 -39 -196 -27 -21 -77 -15 -108 11 l-28 24 -3 151 -3 151 90
0 91 0 0 -141z m358 -10 l-3 -151 -28 -24 c-16 -13 -41 -24 -57 -24 -77 0 -90
29 -90 210 l0 140 91 0 90 0 -3 -151z"/>
<path d="M3554 3349 c-59 -17 -126 -71 -158 -129 l-31 -55 -3 -702 -3 -703
266 0 265 0 3 593 c3 776 3 765 -13 820 -36 130 -193 215 -326 176z"/>
<path d="M1228 2143 l3 -1038 25 -25 24 -25 926 0 926 0 24 28 24 28 0 1035 0
1034 -977 0 -978 0 3 -1037z m772 832 c16 -17 24 -37 24 -61 0 -32 -11 -47
-115 -150 -145 -143 -150 -144 -250 -47 -38 37 -72 77 -75 90 -8 29 13 81 37
93 30 17 85 11 113 -11 l27 -21 69 66 c60 58 73 66 107 66 29 0 46 -7 63 -25z
m769 -156 c63 -22 77 -107 24 -149 -24 -19 -40 -20 -325 -20 l-299 0 -24 25
c-46 45 -27 125 35 148 30 11 556 7 589 -4z m-776 -369 c63 -50 42 -103 -93
-234 -92 -90 -102 -96 -140 -96 -36 0 -48 7 -97 52 -88 84 -101 125 -57 177
32 38 90 43 119 11 10 -11 22 -20 28 -20 5 0 41 29 78 65 77 72 114 83 162 45z
m805 -183 c36 -38 38 -78 7 -115 l-27 -32 -307 0 -308 0 -22 24 c-33 35 -31
93 4 123 26 23 28 23 329 23 l303 0 21 -23z m-819 -342 c38 -19 57 -66 42
-103 -7 -16 -59 -75 -116 -132 -99 -98 -107 -105 -146 -105 -37 0 -46 6 -110
72 -81 83 -89 115 -40 164 38 37 79 38 121 3 l31 -27 73 72 c78 75 96 82 145
56z m814 -185 c49 -39 42 -116 -14 -145 -42 -22 -577 -22 -619 0 -40 21 -57
73 -36 114 9 16 24 35 33 40 11 6 132 11 314 11 281 0 298 -1 322 -20z"/>
<path d="M3364 1518 c14 -128 55 -245 117 -335 111 -161 167 -169 264 -41 87
114 145 268 145 386 l0 52 -266 0 -267 0 7 -62z"/>
</g>
</svg>
