<?xml version="1.0"?>
<svg xmlns="http://www.w3.org/2000/svg" xmlns:xlink="http://www.w3.org/1999/xlink" version="1.1" id="Capa_1" x="0px" y="0px" viewBox="0 0 512 512" style="enable-background:new 0 0 512 512;" xml:space="preserve" width="512px" height="512px"><g><g>
	<g>
		<path d="M512,256L272.376,86.78v68.809H0v200.822h272.376v68.809L512,256z M139.62,300.329H75.968v-89.314h62.519v21.386h-37.99    v12.58h32.456v19.875h-32.456v14.089h39.123V300.329z M226.416,300.329H200l-15.222-26.92l-15.22,26.92h-26.543l28.807-44.028    l-29.813-45.286h26.542l16.227,28.178l16.227-28.178h26.417l-29.814,45.286L226.416,300.329z M233.712,300.329v-89.314h24.529    v89.314H233.712z M267.17,232.4v-21.386h75.98V232.4h-25.662v67.929h-24.53V232.4H267.17z" data-original="#000000" class="active-path" data-old_color="#000000" fill="#FFFFFF"/>
	</g>
</g></g> </svg>
