<svg id="Layer_1" height="512" viewBox="0 0 64 64" width="512" xmlns="http://www.w3.org/2000/svg" data-name="Layer 1"><path d="m27.117 49h9.766a6.961 6.961 0 0 0 -9.766 0z"/><path d="m22 57h4v-3a1 1 0 0 1 1-1h10a1 1 0 0 1 1 1v3h4v-6h-20z"/><path d="m36.883 15h-9.766a6.961 6.961 0 0 0 9.766 0z"/><path d="m28 7h8v2h-8z"/><path d="m42 7h-4v3a1 1 0 0 1 -1 1h-10a1 1 0 0 1 -1-1v-3h-4v6h20z"/><path d="m28 55h8v2h-8z"/><path d="m32 39a7.006 7.006 0 0 1 -6.92-6h-12.08v24h7v-7a1 1 0 0 1 1-1h3.5l.3-.4a9 9 0 0 1 14.4 0l.3.4h3.5a1 1 0 0 1 1 1v7h7v-24h-12.08a7.006 7.006 0 0 1 -6.92 6z"/><path d="m44 14a1 1 0 0 1 -1 1h-3.5l-.3.4a9 9 0 0 1 -14.4 0l-.3-.4h-3.5a1 1 0 0 1 -1-1v-7h-7v24h12.08a6.991 6.991 0 0 1 13.84 0h12.08v-24h-7z"/><path d="m32 27a5.009 5.009 0 0 0 -4.9 4h9.8a5.009 5.009 0 0 0 -4.9-4z"/><path d="m32 37a5.009 5.009 0 0 0 4.9-4h-9.8a5.009 5.009 0 0 0 4.9 4z"/><path d="m9 3v58h46v-58zm44 55a1 1 0 0 1 -1 1h-40a1 1 0 0 1 -1-1v-52a1 1 0 0 1 1-1h40a1 1 0 0 1 1 1z"/></svg>